<?xml version="1.0" encoding="utf-8"?>
<!-- Generator: Adobe Illustrator 19.0.0, SVG Export Plug-In . SVG Version: 6.00 Build 0)  -->
<svg xmlns="http://www.w3.org/2000/svg" xmlns:xlink="http://www.w3.org/1999/xlink" version="1.1" id="Layer_1" x="0px" y="0px" width="82.1px" height="74px" viewBox="0 0 82.1 74" style="enable-background:new 0 0 82.1 74;" xml:space="preserve">
<style type="text/css">
	.st0{fill:#FB2F51;}
</style>
<path id="XMLID_2_" class="st0" d="M2.4,41.3c0.6,4.1,1.2,8.8,1.8,13c0.7,5,2.3,9.1,4.8,12.6c3.7,4.9,7.9,7.3,13,7.1  c0.6,0,1.2,0,1.9,0c0.5,0,0.9,0,1.3,0c0.2,0,0.5,0,0.7,0h22.7h1.2c3.8,0,8,0,12.5-0.1c1.3,0,2.5-0.2,3.5-0.6  c6.7-2.5,11-7.8,12.4-15.3c0.7-3.9,1-7.9,1.3-11.7v-0.1c0.1-1.4,0.2-2.9,0.4-4.3c0.2-2.1,0.4-4.3,0.5-6.4v-0.2  c0.1-1.2,0.2-2.5,0.3-3.7c0.3-3.3,0.6-6.6,0.8-9.9l0.4-4.4v-0.1c0-3.3-0.8-6.2-2.4-8.8C76,2.6,71-0.2,65,0.1c-4,0.2-8,0.7-11.9,1.2  h-0.2c-1.6,0.2-3.1,0.4-4.7,0.5c-3.1,0.3-6.1,0.7-9.2,1L37.5,3c-7,0.8-14.3,1.6-21.5,2.3c-4.7,0.5-9.1,3-12.2,6.8  c-3,3.8-4.3,8.4-3.7,13C0.8,30.5,1.6,36,2.4,41.3 M78.8,16.9l-0.4,4.4c-0.3,3.3-0.6,6.6-0.8,9.8c-0.1,1.3-0.2,2.6-0.3,3.8v0.3  c-0.2,2-0.3,4.1-0.5,6.1c-0.1,1.5-0.3,3-0.4,4.5c-0.3,3.8-0.6,7.7-1.3,11.4c-1.2,6.4-4.7,10.8-10.5,13c-0.7,0.3-1.5,0.4-2.5,0.4  c-4.3,0.1-8.6,0.1-12.7,0.1h-0.9H25.8h-0.1c-0.5,0-1.1,0-1.8,0c-0.4,0-0.8,0-1.3,0c-0.3,0-0.5,0-0.8,0c-0.1,0-0.3,0-0.4,0  c-3.9,0-7.1-1.9-10-5.8c-2.2-3-3.6-6.6-4.2-11.2c-0.5-4.1-1.1-8.4-1.7-12.6V41c-0.7-5-1.6-10.8-2.3-16.2c-0.5-3.8,0.6-7.6,3-10.7  c2.5-3.2,6.2-5.3,10.1-5.7c7.2-0.7,14.5-1.5,21.5-2.3L38.6,6c3.3-0.4,6.6-0.7,9.9-1.1c1.6-0.2,3.2-0.4,4.9-0.6  c3.8-0.5,7.8-0.9,11.7-1.2c4.9-0.3,8.8,2,11.8,6.8C78.2,12.1,78.9,14.4,78.8,16.9l0.2-0.1l0,0L78.8,16.9z"/>
<g id="XMLID_5_">
	<path id="XMLID_35_" class="st0" d="M21.3,21.8L21.3,21.8v4.2c0,0.6,0,1.5,0,2.3v0.1l0.1,0.1c0.9,0.5,1.6,1,2.4,1.4l10.4,6   l-0.9,0.5c-1.5,0.9-3.6,2.1-5.7,3.3c-2.4,1.3-4.8,2.8-6.3,3.6c-0.2,0.1-0.2,0.2-0.2,0.9c0,0.2,0,0.4,0,0.6V45   c0,2.1,0.1,2.3,0.1,3.4c0,0.7,0.1,1.6,0.1,3.5v0.2l22.4-13l-4.9-2.9c-1.5-0.9-2.9-1.6-4.3-2.5l-2.9-1.7c-2.6-1.5-5.3-3.1-7.9-4.6   c-0.4-0.2-0.5-0.7-0.5-1c0-0.2,0-0.5,0-0.9c0-0.2,0-0.4,0-0.5v-2.8l12.5,7.2l9,5.3l-0.1-2l-0.1-0.1c-0.7-0.4-1.4-0.9-2-1.2L39.7,30   h0.1l-0.8-0.4c-2-1.2-3.9-2.3-6-3.5c-2.9-1.7-5.8-3.4-8.7-5.1l-2.9-1.7L21.3,21.8z M36.1,36.8l3.2,1.9c0.2,0.1,0.3,0.4,0.3,0.5   c0,0.2-0.1,0.4-0.3,0.5l-16.3,9.5v-1.1v-3.3c0-0.4,0.4-0.7,0.7-0.9c1.6-1,3.4-2,4.9-2.9L36.1,36.8z"/>
	<rect id="XMLID_13_" x="42.9" y="48.2" class="st0" width="17.9" height="3.9"/>
</g>
<text id="XMLID_6_" transform="matrix(1.0398 0 0 1 99.0388 55.3103)"><tspan x="0" y="0" class="st0" style="font-family:'Poppins-Light'; font-size:53.1175px;">vaah</tspan><tspan x="131.2" y="0" class="st0" style="font-family:'Poppins-SemiBold'; font-size:53.1175px;">cli</tspan></text>
</svg>
