<?xml version="1.0" encoding="utf-8"?>
<!-- Generator: Adobe Illustrator 19.0.0, SVG Export Plug-In . SVG Version: 6.00 Build 0)  -->
<svg version="1.1" id="Layer_1" xmlns="http://www.w3.org/2000/svg" xmlns:xlink="http://www.w3.org/1999/xlink" x="0px" y="0px"
	 viewBox="-352 460 293.8 81" style="enable-background:new -352 460 293.8 81;" xml:space="preserve">
<style type="text/css">
	.st0{fill:#FB2F51;}
</style>
<path id="XMLID_35_" class="st0" d="M-287.9,486.5L-287.9,486.5l-6.8,0c-1,0-2.4,0-3.7,0l-0.1,0l-0.1,0.1c-0.8,1.4-1.6,2.7-2.3,4
	l-9.9,17.1l-0.9-1.5c-1.4-2.4-3.4-5.9-5.4-9.4c-2.2-3.9-4.6-7.9-5.9-10.3c-0.2-0.3-0.3-0.3-1.4-0.3c-0.3,0-0.6,0-1,0l-0.5,0
	c-3.4,0-3.8,0.1-5.5,0.1c-1.1,0-2.6,0.1-5.8,0.2l-0.3,0l21.2,36.6l4.7-8.1c1.4-2.4,2.7-4.7,4.1-7.1l2.8-4.8c2.5-4.3,5-8.6,7.5-13
	c0.3-0.6,1.1-0.9,1.6-0.9c0.4,0,0.9,0,1.5,0c0.3,0,0.6,0,0.9,0l4.6,0l-11.6,20.2l-8.6,14.8l3.3-0.1l0.1-0.1c0.7-1.2,1.4-2.3,1.9-3.3
	l2.4-4.3l0,0.2l0.7-1.3c1.9-3.2,3.7-6.4,5.8-9.9c2.8-4.8,5.5-9.5,8.3-14.3l2.8-4.8L-287.9,486.5z M-312.5,510.7l-3.1,5.3
	c-0.2,0.3-0.6,0.5-0.9,0.5s-0.7-0.2-0.9-0.5l-15.4-26.7l1.8,0l5.4,0c0.6,0,1.2,0.6,1.4,1.1c1.6,2.7,3.2,5.5,4.7,8.1L-312.5,510.7z"
	/>
<path id="XMLID_38_" class="st0" d="M-272.1,471.9c-3.5-5.7-8.6-8.6-14.6-8.3c-4,0.2-8,0.7-11.9,1.2l-0.2,0
	c-1.6,0.2-3.1,0.4-4.7,0.5c-3.1,0.3-6.1,0.7-9.2,1l-1.5,0.2c-7,0.8-14.3,1.6-21.5,2.3c-4.7,0.5-9.1,3-12.2,6.8
	c-3,3.8-4.3,8.4-3.7,13c0.7,5.4,1.5,10.9,2.3,16.2l-0.4,0.1l-0.2,0.1l0,0.4l0.6-0.1c0.6,4.1,1.2,8.3,1.8,12.5
	c0.7,5,2.3,9.1,4.8,12.6c3.7,4.9,7.9,7.3,13,7.1c0.6,0,1.2,0,1.9,0c0.5,0,0.9,0,1.3,0c0.2,0,0.5,0,0.7,0l22.7,0l1.2,0
	c3.8,0,8,0,12.5-0.1c1.3,0,2.5-0.2,3.5-0.6c6.7-2.5,11-7.8,12.4-15.3c0.7-3.9,1-7.9,1.3-11.7l0-0.1c0.1-1.4,0.2-2.9,0.4-4.3
	c0.2-2.1,0.4-4.3,0.5-6.4l0-0.2c0.1-1.2,0.2-2.5,0.3-3.7c0.3-3.3,0.6-6.6,0.8-9.9l0.4-4.4l0-0.1
	C-269.7,477.5-270.5,474.6-272.1,471.9z M-272.8,480.4l-0.4,4.4c-0.3,3.3-0.6,6.6-0.8,9.8c-0.1,1.3-0.2,2.6-0.3,3.8l0,0.3
	c-0.2,2-0.3,4.1-0.5,6.1c-0.1,1.5-0.3,3-0.4,4.5c-0.3,3.8-0.6,7.7-1.3,11.4c-1.2,6.4-4.7,10.8-10.5,13c-0.7,0.3-1.5,0.4-2.5,0.4
	c-4.3,0.1-8.6,0.1-12.7,0.1l-0.9,0l-22.7,0l-0.1,0c-0.5,0-1.1,0-1.8,0c-0.4,0-0.8,0-1.3,0c-0.3,0-0.5,0-0.8,0c-0.1,0-0.3,0-0.4,0
	c-3.9,0-7.1-1.9-10-5.8c-2.2-3-3.6-6.6-4.2-11.2c-0.6-4.3-1.2-8.6-1.8-12.8l0-0.1c-0.7-5-1.6-10.8-2.3-16.2
	c-0.5-3.7,0.6-7.5,3.1-10.7c2.5-3.2,6.2-5.3,10.1-5.7c7.2-0.7,14.5-1.5,21.5-2.3l0.8-0.1c3.3-0.4,6.6-0.7,9.9-1.1
	c1.6-0.2,3.2-0.4,4.9-0.6c3.8-0.5,7.8-0.9,11.7-1.2c4.9-0.3,8.8,2,11.8,6.8C-273.4,475.6-272.8,477.9-272.8,480.4l0.2-0.1l0,0
	L-272.8,480.4z"/>
<g id="XMLID_1_">
	<path id="XMLID_3_" class="st0" d="M-251.8,489.8h4l9.5,25.3l9.6-25.3h4l-11.6,29h-3.8L-251.8,489.8z"/>
	<path id="XMLID_5_" class="st0" d="M-217.9,515.1c-2.7-2.9-4-6.5-4-11c0-4.4,1.3-8,4-10.7c2.6-2.7,6-4.1,10.1-4.1
		c2.6,0,4.9,0.6,6.9,1.9c2,1.3,3.5,2.9,4.4,4.9v-6.3h3.7v29h-3.7v-6.4c-1,2-2.4,3.7-4.4,5c-2,1.3-4.3,1.9-6.9,1.9
		C-211.9,519.4-215.3,517.9-217.9,515.1z M-199.7,512.9c2.1-2.2,3.2-5,3.2-8.6s-1.1-6.4-3.2-8.6c-2.1-2.2-4.6-3.3-7.6-3.3
		s-5.5,1-7.6,3.1c-2.1,2.1-3.1,4.9-3.1,8.5s1.1,6.5,3.2,8.7c2.1,2.3,4.6,3.4,7.6,3.4C-204.4,516.2-201.8,515.1-199.7,512.9z"/>
	<path id="XMLID_8_" class="st0" d="M-182.8,515.1c-2.7-2.9-4-6.5-4-11c0-4.4,1.3-8,4-10.7c2.6-2.7,6-4.1,10.1-4.1
		c2.6,0,4.9,0.6,6.9,1.9c2,1.3,3.5,2.9,4.4,4.9v-6.3h3.7v29h-3.7v-6.4c-1,2-2.4,3.7-4.4,5c-2,1.3-4.3,1.9-6.9,1.9
		C-176.7,519.4-180.1,517.9-182.8,515.1z M-164.6,512.9c2.1-2.2,3.2-5,3.2-8.6s-1.1-6.4-3.2-8.6c-2.1-2.2-4.6-3.3-7.6-3.3
		s-5.5,1-7.6,3.1c-2.1,2.1-3.1,4.9-3.1,8.5s1.1,6.5,3.2,8.7c2.1,2.3,4.6,3.4,7.6,3.4C-169.2,516.2-166.7,515.1-164.6,512.9z"/>
	<path id="XMLID_11_" class="st0" d="M-146,479.5v15c1.9-3.5,5.2-5.3,9.6-5.3c3.2,0,5.9,1.1,8.1,3.2c2.2,2.1,3.2,5.1,3.2,9.1v17.3
		h-3.7v-16.6c0-3.2-0.8-5.6-2.3-7.3c-1.5-1.7-3.6-2.5-6.3-2.5c-2.7,0-4.8,0.8-6.3,2.5c-1.5,1.7-2.3,4.1-2.3,7.3v16.6h-3.7v-39.3
		H-146z"/>
	<path id="XMLID_13_" class="st0" d="M-113.7,518.1c-0.5,0.5-1.1,0.8-1.8,0.8c-0.7,0-1.3-0.3-1.8-0.8c-0.5-0.5-0.8-1.1-0.8-1.8
		c0-0.7,0.3-1.3,0.8-1.8c0.5-0.5,1.1-0.8,1.8-0.8c0.7,0,1.3,0.3,1.8,0.8c0.5,0.5,0.8,1.1,0.8,1.8C-113,517-113.2,517.6-113.7,518.1z
		"/>
	<path id="XMLID_15_" class="st0" d="M-105.5,517.1c-1.4-1.5-2.1-3.4-2.1-5.8c0-2.3,0.7-4.2,2.1-5.7c1.4-1.4,3.2-2.1,5.3-2.1
		c1.4,0,2.6,0.3,3.6,1c1,0.7,1.8,1.5,2.3,2.6v-8.8h2v20.8h-2v-3.4c-0.5,1.1-1.3,1.9-2.3,2.6c-1,0.7-2.3,1-3.6,1
		C-102.4,519.4-104.1,518.6-105.5,517.1z M-95.9,516c1.1-1.2,1.7-2.7,1.7-4.5c0-1.9-0.6-3.4-1.7-4.5c-1.1-1.2-2.5-1.7-4-1.7
		s-2.9,0.6-4,1.7c-1.1,1.1-1.7,2.6-1.7,4.5c0,1.9,0.6,3.4,1.7,4.6c1.1,1.2,2.5,1.8,4,1.8C-98.4,517.7-97,517.1-95.9,516z"/>
	<path id="XMLID_18_" class="st0" d="M-81.7,519.4c-2.2,0-4-0.7-5.3-2.2c-1.4-1.5-2-3.4-2-5.8c0-2.4,0.7-4.3,2.1-5.8
		c1.4-1.5,3.2-2.2,5.4-2.2c2.2,0,4,0.7,5.3,2c1.3,1.4,2,3.1,2,5.1c0,0.5,0,1-0.1,1.5H-87c0.1,1.8,0.6,3.1,1.6,4.2
		c1,1,2.2,1.5,3.8,1.5c1.2,0,2.2-0.3,3-0.8c0.8-0.5,1.4-1.3,1.7-2.1h2.1c-0.5,1.3-1.3,2.4-2.5,3.2C-78.4,519-79.9,519.4-81.7,519.4z
		 M-76.3,510.6c0-1.7-0.5-3-1.5-4c-1-1-2.3-1.5-3.8-1.5c-1.5,0-2.8,0.5-3.8,1.5c-1,1-1.5,2.3-1.6,4.1H-76.3z"/>
	<path id="XMLID_21_" class="st0" d="M-72.8,503.8h2.1l5,13.4l5.1-13.4h2.1l-6.1,15.3h-2L-72.8,503.8z"/>
</g>
</svg>
